<?xml version="1.0" encoding="utf-8"?>
<!-- Generator: Adobe Illustrator 27.0.0, SVG Export Plug-In . SVG Version: 6.00 Build 0)  -->
<svg version="1.1" id="Layer_1" xmlns="http://www.w3.org/2000/svg" xmlns:xlink="http://www.w3.org/1999/xlink" x="0px" y="0px"
	 viewBox="0 0 556 556" style="enable-background:new 0 0 556 556;" xml:space="preserve">
<style type="text/css">
	.st0{fill:#FCB702;}
</style>
<g>
	<path class="st0" d="M542,358c-4.4,0-8,3.6-8,8s-3.6,8-8,8H414c-4.4,0-8-3.6-8-8v-48c0-4.4,3.6-8,8-8s8-3.6,8-8s-3.6-8-8-8
		c-5.9,0-11.6,2.2-16,6.2c-4.4-4-10.1-6.2-16-6.2H134c-4.4,0-8-3.6-8-8v-48c0-4.4,3.6-8,8-8h136c4.4,0,8-3.6,8-8s-3.6-8-8-8h-64
		c-4.4,0-8-3.6-8-8v-48c0-4.4,3.6-8,8-8h16c4.4,0,8-3.6,8-8s-3.6-8-8-8h-16c-5.9,0-11.6,2.2-16,6.2c-4.4-4-10.1-6.2-16-6.2H62
		c-13.3,0-24,10.7-24,24v48c0,5.9,2.2,11.6,6.2,16c-4,4.4-6.2,10.1-6.2,16v48c0,5.9,2.2,11.6,6.2,16c-4,4.4-6.2,10.1-6.2,16v48
		c0,5.9,2.2,11.6,6.2,16c-4,4.4-6.2,10.1-6.2,16v48c0,5.9,2.2,11.6,6.2,16c-4,4.4-6.2,10.1-6.2,16v48c0,13.3,10.7,24,24,24h112
		c5.9,0,11.6-2.2,16-6.2c4.4,4,10.1,6.2,16,6.2h176c5.9,0,11.6-2.2,16-6.2c4.4,4,10.1,6.2,16,6.2h112c13.3,0,24-10.7,24-24v-48
		c0-5.9-2.2-11.6-6.2-16c4-4.4,6.2-10.1,6.2-16v-48c0-5.9-2.2-11.6-6.2-16c4-4.4,6.2-10.1,6.2-16C550,361.6,546.4,358,542,358z
		 M54,158c0-4.4,3.6-8,8-8h112c4.4,0,8,3.6,8,8v48c0,4.4-3.6,8-8,8H62c-4.4,0-8-3.6-8-8V158z M54,238c0-4.4,3.6-8,8-8h40
		c4.4,0,8,3.6,8,8v48c0,4.4-3.6,8-8,8H62c-4.4,0-8-3.6-8-8V238z M54,318c0-4.4,3.6-8,8-8h112c4.4,0,8,3.6,8,8v48c0,4.4-3.6,8-8,8H62
		c-4.4,0-8-3.6-8-8V318z M54,398c0-4.4,3.6-8,8-8h40c4.4,0,8,3.6,8,8v48c0,4.4-3.6,8-8,8H62c-4.4,0-8-3.6-8-8V398z M182,526
		c0,4.4-3.6,8-8,8H62c-4.4,0-8-3.6-8-8v-48c0-4.4,3.6-8,8-8h112c4.4,0,8,3.6,8,8V526z M134,454c-4.4,0-8-3.6-8-8v-48
		c0-4.4,3.6-8,8-8h104c4.4,0,8-3.6,8-8s-3.6-8-8-8h-32c-4.4,0-8-3.6-8-8v-48c0-4.4,3.6-8,8-8h176c4.4,0,8,3.6,8,8v48
		c0,4.4-3.6,8-8,8H270c-4.4,0-8,3.6-8,8s3.6,8,8,8h40c4.4,0,8,3.6,8,8v48c0,4.4-3.6,8-8,8H134z M390,526c0,4.4-3.6,8-8,8H206
		c-4.4,0-8-3.6-8-8v-48c0-4.4,3.6-8,8-8h176c4.4,0,8,3.6,8,8V526z M342,454c-4.4,0-8-3.6-8-8v-48c0-4.4,3.6-8,8-8h112
		c4.4,0,8,3.6,8,8v48c0,4.4-3.6,8-8,8H342z M534,526c0,4.4-3.6,8-8,8H414c-4.4,0-8-3.6-8-8v-48c0-4.4,3.6-8,8-8h112c4.4,0,8,3.6,8,8
		V526z M534,446c0,4.4-3.6,8-8,8h-40c-4.4,0-8-3.6-8-8v-48c0-4.4,3.6-8,8-8h40c4.4,0,8,3.6,8,8V446z"/>
	<path class="st0" d="M308.4,267.1c5.6,12,16.8,20.5,29.9,22.7c2.4,0.4,4.8,0.6,7.2,0.6c10.7,0,21-4.3,28.6-12l31-31l23.4,23.4
		l-5.9,5.9c-3.1,3.1-3.1,8.2,0,11.3l57.9,57.9c15.9,15.9,41.7,15.9,57.7,0s15.9-41.7,0-57.7l-57.9-57.9c-3.1-3.1-8.2-3.1-11.3,0
		l-5.9,5.9L439.5,213l31-31c15.9-16,15.8-41.8-0.2-57.7c-3.3-3.2-7.1-5.9-11.2-7.9l-65.6-31.1c-3.9-2-8.8-0.4-10.7,3.6
		c-2,3.9-0.4,8.8,3.6,10.7c0.1,0.1,0.2,0.1,0.3,0.2l65.6,31.1c12.4,5.9,17.6,20.7,11.7,33.1c-1.2,2.5-2.8,4.8-4.8,6.8l-31,31
		l-17.5-17.5c-9.6-9.2-24.8-9.2-34.5,0c-9.5,9.5-9.5,25,0,34.5c0,0,0,0,0,0l17.5,17.5l-31,31c-9.7,9.7-25.4,9.6-35.1-0.1
		c-2-2-3.6-4.3-4.8-6.8L248.4,103c-4.5-9.5-2.5-20.7,4.9-28.1L267,61.3c7.4-7.4,18.6-9.3,28.1-4.9l59.5,28.2c3.9,2,8.8,0.4,10.7-3.6
		c2-3.9,0.4-8.8-3.6-10.7c-0.1-0.1-0.2-0.1-0.3-0.2l-59.5-28.2c-15.6-7.4-34.1-4.2-46.3,8L242,63.6c-12.2,12.2-15.4,30.7-8,46.3
		L308.4,267.1z M474.6,247.5l52.3,52.3c10.2,9.1,11.1,24.8,2,35s-24.8,11.1-35,2c-0.7-0.6-1.4-1.3-2-2l-52.3-52.3L474.6,247.5z
		 M387.5,207.4c-1.6-1.6-2.5-3.7-2.5-5.9c0-4.6,3.7-8.4,8.4-8.4c2.2,0,4.4,0.9,5.9,2.5l52.3,52.3l-11.8,11.8L387.5,207.4z"/>
</g>
<g>
	<path d="M526,342c-4.4,0-8,3.6-8,8s-3.6,8-8,8H398c-4.4,0-8-3.6-8-8v-48c0-4.4,3.6-8,8-8s8-3.6,8-8s-3.6-8-8-8
		c-5.9,0-11.6,2.2-16,6.2c-4.4-4-10.1-6.2-16-6.2H118c-4.4,0-8-3.6-8-8v-48c0-4.4,3.6-8,8-8h136c4.4,0,8-3.6,8-8s-3.6-8-8-8h-64
		c-4.4,0-8-3.6-8-8v-48c0-4.4,3.6-8,8-8h16c4.4,0,8-3.6,8-8s-3.6-8-8-8h-16c-5.9,0-11.6,2.2-16,6.2c-4.4-4-10.1-6.2-16-6.2H46
		c-13.3,0-24,10.7-24,24v48c0,5.9,2.2,11.6,6.2,16c-4,4.4-6.2,10.1-6.2,16v48c0,5.9,2.2,11.6,6.2,16c-4,4.4-6.2,10.1-6.2,16v48
		c0,5.9,2.2,11.6,6.2,16c-4,4.4-6.2,10.1-6.2,16v48c0,5.9,2.2,11.6,6.2,16c-4,4.4-6.2,10.1-6.2,16v48c0,13.3,10.7,24,24,24h112
		c5.9,0,11.6-2.2,16-6.2c4.4,4,10.1,6.2,16,6.2h176c5.9,0,11.6-2.2,16-6.2c4.4,4,10.1,6.2,16,6.2h112c13.3,0,24-10.7,24-24v-48
		c0-5.9-2.2-11.6-6.2-16c4-4.4,6.2-10.1,6.2-16v-48c0-5.9-2.2-11.6-6.2-16c4-4.4,6.2-10.1,6.2-16C534,345.6,530.4,342,526,342z
		 M38,142c0-4.4,3.6-8,8-8h112c4.4,0,8,3.6,8,8v48c0,4.4-3.6,8-8,8H46c-4.4,0-8-3.6-8-8V142z M38,222c0-4.4,3.6-8,8-8h40
		c4.4,0,8,3.6,8,8v48c0,4.4-3.6,8-8,8H46c-4.4,0-8-3.6-8-8V222z M38,302c0-4.4,3.6-8,8-8h112c4.4,0,8,3.6,8,8v48c0,4.4-3.6,8-8,8H46
		c-4.4,0-8-3.6-8-8V302z M38,382c0-4.4,3.6-8,8-8h40c4.4,0,8,3.6,8,8v48c0,4.4-3.6,8-8,8H46c-4.4,0-8-3.6-8-8V382z M166,510
		c0,4.4-3.6,8-8,8H46c-4.4,0-8-3.6-8-8v-48c0-4.4,3.6-8,8-8h112c4.4,0,8,3.6,8,8V510z M118,438c-4.4,0-8-3.6-8-8v-48
		c0-4.4,3.6-8,8-8h104c4.4,0,8-3.6,8-8s-3.6-8-8-8h-32c-4.4,0-8-3.6-8-8v-48c0-4.4,3.6-8,8-8h176c4.4,0,8,3.6,8,8v48
		c0,4.4-3.6,8-8,8H254c-4.4,0-8,3.6-8,8s3.6,8,8,8h40c4.4,0,8,3.6,8,8v48c0,4.4-3.6,8-8,8H118z M374,510c0,4.4-3.6,8-8,8H190
		c-4.4,0-8-3.6-8-8v-48c0-4.4,3.6-8,8-8h176c4.4,0,8,3.6,8,8V510z M326,438c-4.4,0-8-3.6-8-8v-48c0-4.4,3.6-8,8-8h112
		c4.4,0,8,3.6,8,8v48c0,4.4-3.6,8-8,8H326z M518,510c0,4.4-3.6,8-8,8H398c-4.4,0-8-3.6-8-8v-48c0-4.4,3.6-8,8-8h112c4.4,0,8,3.6,8,8
		V510z M518,430c0,4.4-3.6,8-8,8h-40c-4.4,0-8-3.6-8-8v-48c0-4.4,3.6-8,8-8h40c4.4,0,8,3.6,8,8V430z"/>
	<path d="M292.4,251.1c5.6,12,16.8,20.5,29.9,22.7c2.4,0.4,4.8,0.6,7.2,0.6c10.7,0,21-4.3,28.6-12l31-31l23.4,23.4l-5.9,5.9
		c-3.1,3.1-3.1,8.2,0,11.3l57.9,57.9c15.9,15.9,41.7,15.9,57.7,0s15.9-41.7,0-57.7l-57.9-57.9c-3.1-3.1-8.2-3.1-11.3,0l-5.9,5.9
		L423.5,197l31-31c15.9-16,15.8-41.8-0.2-57.7c-3.3-3.2-7.1-5.9-11.2-7.9l-65.6-31.1c-3.9-2-8.8-0.4-10.7,3.6
		c-2,3.9-0.4,8.8,3.6,10.7c0.1,0.1,0.2,0.1,0.3,0.2l65.6,31.1c12.4,5.9,17.6,20.7,11.7,33.1c-1.2,2.5-2.8,4.8-4.8,6.8l-31,31
		l-17.5-17.5c-9.6-9.2-24.8-9.2-34.5,0c-9.5,9.5-9.5,25,0,34.5c0,0,0,0,0,0l17.5,17.5l-31,31c-9.7,9.7-25.4,9.6-35.1-0.1
		c-2-2-3.6-4.3-4.8-6.8L232.4,87c-4.5-9.5-2.5-20.7,4.9-28.1L251,45.3c7.4-7.4,18.6-9.3,28.1-4.9l59.5,28.2c3.9,2,8.8,0.4,10.7-3.6
		c2-3.9,0.4-8.8-3.6-10.7c-0.1-0.1-0.2-0.1-0.3-0.2l-59.5-28.2c-15.6-7.4-34.1-4.2-46.3,8L226,47.6c-12.2,12.2-15.4,30.7-8,46.3
		L292.4,251.1z M458.6,231.5l52.3,52.3c10.2,9.1,11.1,24.8,2,35s-24.8,11.1-35,2c-0.7-0.6-1.4-1.3-2-2l-52.3-52.3L458.6,231.5z
		 M371.5,191.4c-1.6-1.6-2.5-3.7-2.5-5.9c0-4.6,3.7-8.4,8.4-8.4c2.2,0,4.4,0.9,5.9,2.5l52.3,52.3l-11.8,11.8L371.5,191.4z"/>
</g>
</svg>
