<svg xmlns="http://www.w3.org/2000/svg" width="601.92" height="229.79" viewBox="0 0 601.92 229.79"><path d="M281.57,143.66H266.85q-2.76,0-1.84-3.22l24.23-92.15a4.4,4.4,0,0,1,4.6-3.22h20.39q3.84,0,4.6,3.22l24.23,92.15q.92,3.23-1.84,3.22H326.5a3,3,0,0,1-2.3-.69,5.17,5.17,0,0,1-.92-2.53L319,123.58h-29.9l-4.3,16.86a4.67,4.67,0,0,1-1,2.53A3.07,3.07,0,0,1,281.57,143.66Zm22.24-80-11,44.31h22.69l-11-44.31Z" fill="#ffb600"/><path d="M434.45,45.07h22.69q3.23,0,3.22,3.22v92.15q0,3.23-3.22,3.22H444.57q-3.22,0-3.22-3.22V67.76h-.61L425.1,119.13a3.78,3.78,0,0,1-3.84,3.07H408.38a3.76,3.76,0,0,1-3.83-3.07L388.6,67.61H388v72.83a3.94,3.94,0,0,1-.61,2.53,3.55,3.55,0,0,1-2.61.69H372.19c-2.14,0-3.22-1.07-3.22-3.22V48.29c0-2.15,1.08-3.22,3.22-3.22H395A2.9,2.9,0,0,1,398,47.21l16.25,54.13h.92l16.41-54.13A2.6,2.6,0,0,1,434.45,45.07Z" fill="#ffb600"/><path d="M532.59,143.66H516.33q-12.11,0-18.7-6.44T491,118.67V70.06q0-12.11,6.6-18.55t18.7-6.44h16.26q12,0,18.55,6.51t6.6,18.48v4.6q0,3.38-3.23,3.37h-13q-3.22,0-3.22-3.37V71c0-3.27-.67-5.6-2-7s-3.63-2.07-6.9-2.07h-10q-4.75,0-6.82,2.07t-2.07,7v46.77q0,4.91,2.07,7t6.82,2.07h10q4.9,0,6.9-2.07c1.32-1.38,2-3.71,2-7v-9.66a1.49,1.49,0,0,0-1.69-1.69h-9.2c-2.14,0-3.22-1.07-3.22-3.22V92.75c0-2.14,1.08-3.22,3.22-3.22h26.84q3.52,0,3.53,3.53v25.61q0,12-6.6,18.48T532.59,143.66Z" fill="#ffb600"/><path d="M281.05,201.74h-4.83v-34h-12v-4.24H293v4.24h-11.9Z" fill="#142f5d"/><path d="M302.81,173a28.24,28.24,0,0,1-.27,4h.32a8.89,8.89,0,0,1,3.78-3.32,12,12,0,0,1,5.17-1.13q5.25,0,7.88,2.5t2.63,8v18.7h-4.66V183.36q0-6.92-6.44-6.91-4.82,0-6.62,2.7t-1.79,7.75v14.84h-4.72V161h4.72Z" fill="#142f5d"/><path d="M342.31,172.48a11.94,11.94,0,0,1,6.35,1.61,10.56,10.56,0,0,1,4.08,4.53,15.51,15.51,0,0,1,1.42,6.83v2.84H334.49c.07,3.25.9,5.73,2.49,7.42a8.68,8.68,0,0,0,6.67,2.55,20.81,20.81,0,0,0,4.85-.51,27.74,27.74,0,0,0,4.37-1.47v4.12a21.75,21.75,0,0,1-4.34,1.42,24.36,24.36,0,0,1-5.09.46,15.13,15.13,0,0,1-7.21-1.66,11.57,11.57,0,0,1-4.88-5,17.13,17.13,0,0,1-1.74-8.07,18.86,18.86,0,0,1,1.58-8.09,12,12,0,0,1,4.45-5.2A12.19,12.19,0,0,1,342.31,172.48Zm-.05,3.86a6.83,6.83,0,0,0-5.34,2.17,10.27,10.27,0,0,0-2.33,6h14.64a10.08,10.08,0,0,0-1.72-5.92A6.06,6.06,0,0,0,342.26,176.34Z" fill="#142f5d"/><path d="M393,172.48q4.88,0,7.29,2.49t2.41,8.07v18.7H398V183.25q0-6.81-5.84-6.8-4.19,0-6,2.41c-1.2,1.61-1.79,3.95-1.79,7v15.86h-4.67V183.25q0-6.81-5.89-6.8-4.35,0-6,2.67c-1.1,1.79-1.66,4.37-1.66,7.72v14.9h-4.71V173h3.8l.7,3.92h.27a8.33,8.33,0,0,1,3.61-3.35,11.08,11.08,0,0,1,4.85-1.1q6.76,0,8.79,4.82h.27a8.93,8.93,0,0,1,3.94-3.64A12.13,12.13,0,0,1,393,172.48Z" fill="#142f5d"/><path d="M422.66,172.48a12,12,0,0,1,6.35,1.61,10.54,10.54,0,0,1,4.07,4.53,15.37,15.37,0,0,1,1.42,6.83v2.84H414.83c.07,3.25.9,5.73,2.49,7.42a8.7,8.7,0,0,0,6.68,2.55,20.87,20.87,0,0,0,4.85-.51,28.09,28.09,0,0,0,4.37-1.47v4.12a21.84,21.84,0,0,1-4.35,1.42,24.3,24.3,0,0,1-5.09.46,15.16,15.16,0,0,1-7.21-1.66,11.63,11.63,0,0,1-4.88-5,17.13,17.13,0,0,1-1.74-8.07,19,19,0,0,1,1.58-8.09,11.7,11.7,0,0,1,11.13-7Zm-.06,3.86a6.8,6.8,0,0,0-5.33,2.17,10.21,10.21,0,0,0-2.33,6h14.63a10.08,10.08,0,0,0-1.72-5.92Q426.2,176.34,422.6,176.34Z" fill="#142f5d"/><path d="M489.76,182.56a24.88,24.88,0,0,1-2,10.37,15.5,15.5,0,0,1-5.92,6.88,17.81,17.81,0,0,1-9.7,2.47,18.25,18.25,0,0,1-9.89-2.47,14.91,14.91,0,0,1-5.87-6.91,25.91,25.91,0,0,1-1.93-10.4,25.36,25.36,0,0,1,1.93-10.29,15,15,0,0,1,5.87-6.86,18.45,18.45,0,0,1,9.94-2.47,18,18,0,0,1,9.65,2.44,15.4,15.4,0,0,1,5.92,6.86A24.9,24.9,0,0,1,489.76,182.56Zm-30.23,0q0,7.23,3.06,11.39t9.54,4.15q6.54,0,9.54-4.15t3-11.39q0-7.25-3-11.34t-9.49-4.1q-6.48,0-9.57,4.1T459.53,182.56Z" fill="#142f5d"/><path d="M511.42,172.48c3.42,0,6,.83,7.77,2.49s2.62,4.35,2.62,8.07v18.7h-4.66V183.36q0-6.92-6.43-6.91-4.77,0-6.59,2.67c-1.22,1.79-1.83,4.37-1.83,7.72v14.9h-4.71V173h3.8l.7,3.92h.27a8.46,8.46,0,0,1,3.86-3.35A12.64,12.64,0,0,1,511.42,172.48Z" fill="#142f5d"/><path d="M541.81,172.48a12,12,0,0,1,6.35,1.61,10.54,10.54,0,0,1,4.07,4.53,15.37,15.37,0,0,1,1.42,6.83v2.84H534c.07,3.25.9,5.73,2.49,7.42a8.7,8.7,0,0,0,6.68,2.55,20.87,20.87,0,0,0,4.85-.51,27.64,27.64,0,0,0,4.36-1.47v4.12a21.55,21.55,0,0,1-4.34,1.42,24.3,24.3,0,0,1-5.09.46,15.16,15.16,0,0,1-7.21-1.66,11.63,11.63,0,0,1-4.88-5,17.13,17.13,0,0,1-1.74-8.07,19,19,0,0,1,1.58-8.09,11.7,11.7,0,0,1,11.13-7Zm-.06,3.86a6.8,6.8,0,0,0-5.33,2.17,10.21,10.21,0,0,0-2.33,6h14.63a10.08,10.08,0,0,0-1.72-5.92Q545.35,176.34,541.75,176.34Z" fill="#142f5d"/><polygon points="168.64 134.35 168.77 75.15 135.36 134.35 168.64 134.35" fill="#ffb600"/><path d="M241.53,122.39a16.68,16.68,0,0,0-6.44-6.28c12.13-31.33-2.85-50.13-3.59-51l-4.39-5.38-.93,6.65a44.16,44.16,0,0,1-1.71,7.36c-2.28-19.22-12.55-26.12-13-26.46l-.62-.39h-.73c-4.34-.48-8.54-1-12.56-1.56v154l2.5-1.9c.89-.7,1.79-1.42,2.69-2.16h0a21.83,21.83,0,0,0,2.06-1.79,46.52,46.52,0,0,0,3-7.18l5.85-16.83c22.06-3.7,27.12-18.79,27.37-19.56C245.28,138.25,245.28,129,241.53,122.39Z" fill="#033987"/><path d="M167,163.62H118.76L97.25,196.77l5.74,4.29,2.23,1.79,4.37,3.09,2.53,1.79c1.94,1.4,4.87,3.45,8.08,5.6A93.16,93.16,0,0,0,137,222.86h.54a76.8,76.8,0,0,0,21.52-3.69c1.13-.33,2.31-.72,3.58-1.14h.22l1.25-.44.31-.11,1.4-.5.45-.16h.1Z" fill="#142f5d"/><path d="M97.46,14.6c1.08,16.14,11.9,21.52,11.9,21.52s-57.31-7-73.1-29.2l1.12,8.45C39.78,32.61,49.94,49.75,57.92,61l-1.16-.8.48,5.66c2.87,32.92,11.68,52.61,15,59.19,0,0-8.56,4-.81,22.62h0a31.5,31.5,0,0,0,3.14,6.28,21.15,21.15,0,0,0,9.9,7.85l78-123.07S107.16,27.12,97.46,14.6Z" fill="#ffb600"/></svg>